<svg xmlns="http://www.w3.org/2000/svg" xmlns:xlink="http://www.w3.org/1999/xlink" width="500" zoomAndPan="magnify" viewBox="0 0 375 374.999991" height="500" preserveAspectRatio="xMidYMid meet" version="1.0"><defs><clipPath id="81f8aaefa1"><path d="M 52.191406 52.191406 L 322.941406 52.191406 L 322.941406 322.941406 L 52.191406 322.941406 Z M 52.191406 52.191406 " clip-rule="nonzero"/></clipPath><clipPath id="34749ed5a6"><path d="M 145 52.191406 L 270 52.191406 L 270 151 L 145 151 Z M 145 52.191406 " clip-rule="nonzero"/></clipPath><clipPath id="89df167007"><path d="M 109 52.191406 L 146 52.191406 L 146 151 L 109 151 Z M 109 52.191406 " clip-rule="nonzero"/></clipPath><clipPath id="2617a5d54a"><path d="M 242.042969 242.042969 L 337.292969 242.042969 L 337.292969 337 L 242.042969 337 Z M 242.042969 242.042969 " clip-rule="nonzero"/></clipPath></defs><g clip-path="url(#81f8aaefa1)"><path fill="#65afd6" d="M 322.941406 95.824219 L 322.941406 309.507812 C 322.945312 310.390625 322.859375 311.265625 322.691406 312.132812 C 322.519531 313 322.269531 313.839844 321.933594 314.65625 C 321.597656 315.472656 321.183594 316.25 320.695312 316.984375 C 320.203125 317.71875 319.648438 318.398438 319.023438 319.023438 C 318.398438 319.648438 317.71875 320.203125 316.984375 320.695312 C 316.25 321.183594 315.472656 321.597656 314.65625 321.933594 C 313.839844 322.269531 313 322.519531 312.132812 322.691406 C 311.265625 322.859375 310.390625 322.945312 309.507812 322.941406 L 65.621094 322.941406 C 64.738281 322.941406 63.867188 322.855469 63 322.683594 C 62.136719 322.511719 61.296875 322.253906 60.480469 321.917969 C 59.667969 321.582031 58.890625 321.167969 58.160156 320.675781 C 57.425781 320.1875 56.746094 319.628906 56.125 319.007812 C 55.5 318.382812 54.945312 317.703125 54.453125 316.972656 C 53.964844 316.238281 53.550781 315.464844 53.210938 314.648438 C 52.875 313.835938 52.621094 312.996094 52.449219 312.128906 C 52.277344 311.265625 52.191406 310.390625 52.191406 309.507812 L 52.191406 65.621094 C 52.191406 64.738281 52.277344 63.867188 52.449219 63 C 52.621094 62.136719 52.875 61.296875 53.210938 60.480469 C 53.550781 59.667969 53.964844 58.890625 54.453125 58.160156 C 54.945312 57.425781 55.5 56.746094 56.125 56.125 C 56.746094 55.5 57.425781 54.945312 58.160156 54.453125 C 58.890625 53.964844 59.667969 53.550781 60.480469 53.210938 C 61.296875 52.875 62.136719 52.621094 63 52.449219 C 63.867188 52.277344 64.738281 52.191406 65.621094 52.191406 L 279.304688 52.191406 Z M 322.941406 95.824219 " fill-opacity="1" fill-rule="nonzero"/></g><g clip-path="url(#34749ed5a6)"><path fill="#e0e0e0" d="M 269.765625 52.191406 L 269.765625 141.433594 C 269.765625 142.050781 269.707031 142.660156 269.585938 143.265625 C 269.464844 143.867188 269.289062 144.453125 269.050781 145.023438 C 268.816406 145.589844 268.527344 146.132812 268.1875 146.644531 C 267.84375 147.15625 267.457031 147.628906 267.019531 148.0625 C 266.585938 148.5 266.113281 148.886719 265.601562 149.230469 C 265.085938 149.570312 264.546875 149.859375 263.980469 150.09375 C 263.410156 150.332031 262.824219 150.507812 262.21875 150.628906 C 261.617188 150.75 261.007812 150.808594 260.390625 150.808594 L 145.546875 150.808594 L 145.546875 52.191406 Z M 269.765625 52.191406 " fill-opacity="1" fill-rule="nonzero"/></g><g clip-path="url(#89df167007)"><path fill="#4a6792" d="M 145.546875 52.191406 L 145.546875 150.808594 L 119.125 150.808594 C 118.507812 150.808594 117.902344 150.75 117.300781 150.628906 C 116.695312 150.507812 116.113281 150.332031 115.542969 150.09375 C 114.976562 149.859375 114.4375 149.570312 113.929688 149.226562 C 113.417969 148.882812 112.949219 148.496094 112.515625 148.058594 C 112.082031 147.625 111.695312 147.152344 111.355469 146.640625 C 111.015625 146.125 110.730469 145.585938 110.5 145.019531 C 110.265625 144.449219 110.089844 143.863281 109.972656 143.261719 C 109.859375 142.65625 109.800781 142.050781 109.804688 141.433594 L 109.804688 52.191406 Z M 145.546875 52.191406 " fill-opacity="1" fill-rule="nonzero"/></g><path fill="#e0e0e0" d="M 109.640625 177.121094 L 269.929688 177.121094 C 270.605469 177.121094 271.277344 177.15625 271.949219 177.222656 C 272.621094 177.289062 273.289062 177.386719 273.953125 177.519531 C 274.613281 177.648438 275.265625 177.8125 275.914062 178.007812 C 276.558594 178.207031 277.195312 178.433594 277.816406 178.691406 C 278.441406 178.949219 279.050781 179.238281 279.648438 179.554688 C 280.242188 179.875 280.820312 180.21875 281.382812 180.59375 C 281.941406 180.972656 282.484375 181.371094 283.007812 181.800781 C 283.527344 182.230469 284.027344 182.683594 284.503906 183.160156 C 284.980469 183.636719 285.433594 184.136719 285.863281 184.65625 C 286.292969 185.179688 286.691406 185.722656 287.066406 186.28125 C 287.441406 186.84375 287.789062 187.421875 288.109375 188.015625 C 288.425781 188.613281 288.714844 189.222656 288.972656 189.847656 C 289.230469 190.46875 289.457031 191.105469 289.65625 191.75 C 289.851562 192.398438 290.015625 193.050781 290.144531 193.710938 C 290.277344 194.375 290.375 195.042969 290.441406 195.714844 C 290.507812 196.386719 290.542969 197.058594 290.542969 197.734375 L 290.542969 280.832031 C 290.542969 281.507812 290.507812 282.183594 290.441406 282.855469 C 290.375 283.527344 290.277344 284.191406 290.144531 284.855469 C 290.015625 285.515625 289.851562 286.171875 289.65625 286.816406 C 289.457031 287.464844 289.230469 288.097656 288.972656 288.722656 C 288.714844 289.34375 288.425781 289.953125 288.109375 290.550781 C 287.789062 291.144531 287.441406 291.722656 287.066406 292.285156 C 286.691406 292.847656 286.292969 293.386719 285.863281 293.910156 C 285.433594 294.429688 284.980469 294.929688 284.503906 295.410156 C 284.027344 295.886719 283.527344 296.339844 283.007812 296.765625 C 282.484375 297.195312 281.941406 297.597656 281.382812 297.972656 C 280.820312 298.347656 280.242188 298.695312 279.648438 299.011719 C 279.050781 299.328125 278.441406 299.617188 277.816406 299.875 C 277.195312 300.136719 276.558594 300.363281 275.914062 300.558594 C 275.265625 300.753906 274.613281 300.917969 273.953125 301.050781 C 273.289062 301.179688 272.621094 301.28125 271.949219 301.347656 C 271.277344 301.414062 270.605469 301.445312 269.929688 301.445312 L 109.640625 301.445312 C 108.964844 301.445312 108.292969 301.414062 107.621094 301.347656 C 106.949219 301.28125 106.28125 301.179688 105.617188 301.050781 C 104.957031 300.917969 104.304688 300.753906 103.65625 300.558594 C 103.011719 300.363281 102.375 300.136719 101.753906 299.875 C 101.128906 299.617188 100.519531 299.328125 99.921875 299.011719 C 99.328125 298.695312 98.75 298.347656 98.1875 297.972656 C 97.628906 297.597656 97.085938 297.195312 96.5625 296.765625 C 96.042969 296.339844 95.542969 295.886719 95.066406 295.410156 C 94.589844 294.929688 94.136719 294.429688 93.707031 293.910156 C 93.277344 293.386719 92.878906 292.847656 92.5 292.285156 C 92.125 291.722656 91.78125 291.144531 91.460938 290.550781 C 91.144531 289.953125 90.855469 289.34375 90.597656 288.722656 C 90.339844 288.097656 90.113281 287.464844 89.914062 286.816406 C 89.71875 286.171875 89.554688 285.515625 89.425781 284.855469 C 89.292969 284.191406 89.195312 283.527344 89.128906 282.855469 C 89.0625 282.183594 89.027344 281.507812 89.027344 280.832031 L 89.027344 197.734375 C 89.027344 197.058594 89.0625 196.386719 89.128906 195.714844 C 89.195312 195.042969 89.292969 194.375 89.425781 193.710938 C 89.554688 193.050781 89.71875 192.398438 89.914062 191.75 C 90.113281 191.105469 90.339844 190.46875 90.597656 189.847656 C 90.855469 189.222656 91.144531 188.613281 91.460938 188.015625 C 91.78125 187.421875 92.125 186.84375 92.5 186.28125 C 92.878906 185.722656 93.277344 185.179688 93.707031 184.65625 C 94.136719 184.136719 94.589844 183.636719 95.066406 183.160156 C 95.542969 182.683594 96.042969 182.230469 96.5625 181.800781 C 97.085938 181.371094 97.628906 180.972656 98.1875 180.597656 C 98.75 180.21875 99.328125 179.875 99.921875 179.554688 C 100.519531 179.238281 101.128906 178.949219 101.753906 178.691406 C 102.375 178.433594 103.011719 178.207031 103.65625 178.007812 C 104.304688 177.8125 104.957031 177.648438 105.617188 177.519531 C 106.28125 177.386719 106.949219 177.289062 107.621094 177.222656 C 108.292969 177.15625 108.964844 177.121094 109.640625 177.121094 Z M 109.640625 177.121094 " fill-opacity="1" fill-rule="nonzero"/><path fill="#65afd6" d="M 227.28125 76.199219 L 237.257812 76.199219 C 237.707031 76.199219 238.152344 76.246094 238.59375 76.332031 C 239.035156 76.421875 239.464844 76.550781 239.878906 76.722656 C 240.296875 76.894531 240.691406 77.105469 241.066406 77.355469 C 241.4375 77.605469 241.785156 77.890625 242.105469 78.207031 C 242.421875 78.527344 242.707031 78.871094 242.957031 79.246094 C 243.207031 79.621094 243.417969 80.015625 243.589844 80.429688 C 243.761719 80.847656 243.890625 81.273438 243.980469 81.714844 C 244.066406 82.15625 244.109375 82.601562 244.109375 83.054688 L 244.109375 119.90625 C 244.109375 120.359375 244.066406 120.804688 243.980469 121.246094 C 243.890625 121.6875 243.761719 122.113281 243.589844 122.53125 C 243.417969 122.945312 243.207031 123.339844 242.957031 123.714844 C 242.707031 124.089844 242.421875 124.433594 242.105469 124.753906 C 241.785156 125.070312 241.4375 125.355469 241.066406 125.605469 C 240.691406 125.855469 240.296875 126.066406 239.878906 126.238281 C 239.464844 126.410156 239.035156 126.539062 238.59375 126.628906 C 238.152344 126.714844 237.707031 126.761719 237.257812 126.761719 L 227.28125 126.761719 C 226.832031 126.761719 226.386719 126.714844 225.945312 126.628906 C 225.503906 126.539062 225.074219 126.410156 224.660156 126.238281 C 224.242188 126.066406 223.847656 125.855469 223.472656 125.605469 C 223.101562 125.355469 222.753906 125.070312 222.4375 124.753906 C 222.117188 124.433594 221.832031 124.089844 221.582031 123.714844 C 221.332031 123.339844 221.121094 122.945312 220.949219 122.53125 C 220.777344 122.113281 220.648438 121.6875 220.558594 121.246094 C 220.472656 120.804688 220.429688 120.359375 220.429688 119.90625 L 220.429688 83.054688 C 220.429688 82.601562 220.472656 82.15625 220.558594 81.714844 C 220.648438 81.273438 220.777344 80.847656 220.949219 80.429688 C 221.121094 80.015625 221.332031 79.621094 221.582031 79.246094 C 221.832031 78.871094 222.117188 78.527344 222.4375 78.207031 C 222.753906 77.890625 223.101562 77.605469 223.472656 77.355469 C 223.847656 77.105469 224.242188 76.894531 224.660156 76.722656 C 225.074219 76.550781 225.503906 76.421875 225.945312 76.332031 C 226.386719 76.246094 226.832031 76.199219 227.28125 76.199219 Z M 227.28125 76.199219 " fill-opacity="1" fill-rule="nonzero"/><path fill="#4a6792" d="M 88.371094 77.734375 L 79.050781 73.242188 L 78.996094 73.242188 C 78.535156 73.015625 78.050781 72.90625 77.535156 72.917969 C 77.023438 72.925781 76.542969 73.050781 76.089844 73.296875 L 66.167969 78.394531 L 69.183594 84.257812 L 74.28125 81.628906 L 74.28125 101.472656 L 80.859375 101.472656 L 80.859375 81.464844 L 85.519531 83.65625 Z M 88.371094 77.734375 " fill-opacity="1" fill-rule="nonzero"/><path fill="#4a6792" d="M 64.578125 303.808594 L 72.636719 303.808594 L 72.636719 310.386719 L 64.578125 310.386719 Z M 64.578125 303.808594 " fill-opacity="1" fill-rule="nonzero"/><path fill="#4a6792" d="M 300.628906 303.808594 L 308.6875 303.808594 L 308.6875 310.386719 L 300.628906 310.386719 Z M 300.628906 303.808594 " fill-opacity="1" fill-rule="nonzero"/><path fill="#9a9a9b" d="M 109.804688 197.242188 L 266.859375 197.242188 L 266.859375 203.820312 L 109.804688 203.820312 Z M 109.804688 197.242188 " fill-opacity="1" fill-rule="nonzero"/><path fill="#9a9a9b" d="M 109.804688 222.621094 L 266.859375 222.621094 L 266.859375 229.199219 L 109.804688 229.199219 Z M 109.804688 222.621094 " fill-opacity="1" fill-rule="nonzero"/><path fill="#9a9a9b" d="M 109.804688 248.003906 L 266.859375 248.003906 L 266.859375 254.582031 L 109.804688 254.582031 Z M 109.804688 248.003906 " fill-opacity="1" fill-rule="nonzero"/><path fill="#9a9a9b" d="M 109.804688 273.382812 L 266.859375 273.382812 L 266.859375 279.960938 L 109.804688 279.960938 Z M 109.804688 273.382812 " fill-opacity="1" fill-rule="nonzero"/><g clip-path="url(#2617a5d54a)"><path fill="#ffc107" d="M 337.042969 289.289062 C 337.042969 315.511719 315.765625 336.789062 289.542969 336.789062 C 263.320312 336.789062 242.042969 315.511719 242.042969 289.289062 C 242.042969 263.066406 263.320312 241.792969 289.542969 241.792969 C 315.765625 241.792969 337.042969 263.066406 337.042969 289.289062 Z M 337.042969 289.289062 " fill-opacity="1" fill-rule="nonzero"/></g><path fill="#ffffff" d="M 288.199219 257.546875 L 265.398438 280.34375 C 264.210938 281.550781 265.0625 283.589844 266.742188 283.589844 L 280.042969 283.589844 L 280.042969 315.890625 C 280.042969 316.9375 280.894531 317.789062 281.945312 317.789062 L 297.144531 317.789062 C 298.191406 317.789062 299.042969 316.9375 299.042969 315.890625 L 299.042969 283.589844 L 312.34375 283.589844 C 314.042969 283.589844 314.894531 281.550781 313.6875 280.34375 L 290.890625 257.546875 C 290.15625 256.8125 288.949219 256.8125 288.199219 257.546875 Z M 288.199219 257.546875 " fill-opacity="1" fill-rule="nonzero"/></svg>